<?xml version="1.0" standalone="no"?>
<!DOCTYPE svg PUBLIC "-//W3C//DTD SVG 20010904//EN"
 "http://www.w3.org/TR/2001/REC-SVG-20010904/DTD/svg10.dtd">
<svg version="1.0" xmlns="http://www.w3.org/2000/svg"
 width="400.000000pt" height="400.000000pt" viewBox="0 0 400.000000 400.000000"
 preserveAspectRatio="xMidYMid meet">
<metadata>
Created by potrace 1.14, written by Peter Selinger 2001-2017
</metadata>
<g transform="translate(0.000000,400.000000) scale(0.100000,-0.100000)"
fill="#000000" stroke="none">
<path d="M1735 3983 c-44 -8 -89 -16 -100 -17 -11 -1 -27 -5 -35 -8 -8 -3 -63
-17 -122 -31 -59 -14 -122 -32 -140 -41 -18 -8 -62 -26 -98 -39 -74 -28 -227
-103 -252 -125 -9 -8 -22 -11 -28 -7 -6 3 -9 1 -8 -7 2 -7 -5 -12 -15 -11 -10
0 -16 -1 -13 -4 3 -3 -27 -29 -67 -57 -170 -119 -337 -282 -471 -458 -51 -68
-177 -275 -181 -298 0 -3 -8 -18 -17 -35 -8 -16 -27 -63 -42 -103 -14 -40 -32
-85 -39 -100 -19 -36 -73 -262 -92 -382 -20 -125 -20 -399 0 -531 16 -107 89
-405 104 -423 5 -6 24 -49 42 -96 17 -47 35 -87 38 -90 14 -11 31 -62 25 -73
-4 -7 -3 -9 1 -4 5 4 18 -8 29 -27 80 -133 114 -182 205 -296 43 -54 197 -210
256 -260 89 -76 276 -202 350 -236 22 -11 42 -22 45 -26 3 -4 48 -23 99 -43
51 -20 100 -40 109 -45 24 -13 97 -34 247 -72 l130 -33 310 0 310 0 150 38
c132 34 340 107 399 140 12 6 23 12 26 12 27 6 261 153 324 204 37 31 81 65
96 76 33 25 185 178 223 225 100 127 123 157 157 213 139 223 209 392 276 667
26 108 28 131 32 375 4 278 0 322 -52 537 -14 60 -34 129 -45 155 -11 27 -32
78 -46 115 -50 130 -171 339 -255 443 -30 37 -64 80 -75 94 -26 34 -180 188
-222 221 -94 75 -190 145 -224 165 -22 12 -36 25 -32 29 5 4 3 6 -2 5 -10 -3
-52 17 -153 73 -30 16 -84 41 -120 54 -37 14 -81 31 -97 39 -51 23 -305 85
-414 100 -134 19 -418 18 -526 -2z m488 -273 c108 -15 337 -74 399 -102 29
-14 69 -31 88 -38 97 -38 303 -166 405 -253 70 -59 225 -218 225 -229 0 -4 10
-18 22 -30 23 -23 138 -192 138 -203 0 -3 11 -22 23 -43 76 -119 168 -401 197
-598 13 -92 13 -343 -1 -439 -14 -100 -71 -329 -97 -386 -11 -24 -31 -71 -45
-104 -89 -212 -284 -469 -462 -610 -27 -22 -54 -45 -60 -51 -39 -41 -253 -166
-358 -210 -34 -14 -77 -32 -95 -40 -18 -8 -37 -12 -42 -9 -6 3 -10 2 -10 -4 0
-8 -59 -25 -260 -74 -26 -6 -147 -11 -285 -11 l-240 -1 -148 38 c-273 68 -494
176 -702 341 -117 94 -253 241 -320 346 -16 25 -36 54 -46 65 -22 27 -111 202
-152 300 -37 88 -91 290 -107 400 -14 99 -11 385 4 480 70 425 281 805 591
1064 256 213 545 344 870 396 99 16 369 18 468 5z"/>
<path d="M1687 3599 c-135 -23 -382 -107 -427 -144 -8 -7 -40 -25 -70 -40 -30
-15 -57 -30 -60 -34 -3 -3 -25 -19 -50 -35 -108 -70 -254 -205 -356 -331 -88
-108 -203 -308 -244 -425 -12 -36 -28 -79 -35 -95 -21 -46 -53 -216 -66 -345
-16 -166 -1 -387 37 -545 57 -234 228 -574 256 -507 2 5 38 27 80 51 43 23 80
47 84 52 7 11 -14 69 -25 69 -15 0 -122 241 -147 330 -28 101 -56 251 -49 258
3 3 952 5 1008 2 4 0 7 -341 7 -757 l-1 -758 131 -3 130 -3 2 763 3 763 31 -3
c30 -3 32 -1 35 35 2 21 2 81 -1 133 l-5 95 -30 0 -30 0 -3 748 -2 747 -48 -1
c-26 0 -95 -9 -155 -20z m-57 -863 c0 -541 -2 -604 -16 -610 -24 -9 -992 -7
-998 2 -7 12 12 137 29 191 8 25 26 83 40 127 25 84 106 256 131 282 8 8 22
28 31 45 21 41 127 168 195 233 55 53 173 145 211 165 12 7 24 15 27 19 14 21
301 146 343 149 4 1 7 -271 7 -603z"/>
<path d="M1970 3010 c0 -5 0 -196 0 -422 l0 -413 110 -3 110 -3 0 166 0 165
160 0 160 0 0 100 0 100 -160 0 -160 0 0 65 0 65 170 0 170 0 0 95 0 95 -280
0 c-180 0 -280 -4 -280 -10z"/>
<path d="M2805 3010 c-65 -16 -108 -42 -164 -97 -81 -82 -113 -167 -119 -318
-4 -101 -2 -116 23 -185 15 -41 28 -83 28 -92 1 -9 4 -16 7 -15 3 1 23 -17 45
-38 45 -44 85 -77 85 -70 0 2 19 -4 43 -15 94 -41 254 -33 329 16 21 13 40 24
43 24 11 0 48 44 76 92 21 36 32 69 36 114 l6 64 -122 0 -121 0 0 -25 c0 -75
-60 -132 -128 -121 -82 13 -118 98 -109 260 5 105 21 171 40 159 5 -3 8 -2 4
3 -15 26 44 64 101 64 42 0 80 -29 66 -51 -4 -7 -3 -10 4 -6 6 5 13 -8 17 -33
l7 -40 104 0 c57 0 107 0 112 0 4 0 8 21 10 48 6 105 -85 223 -201 257 -53 16
-170 18 -222 5z"/>
<path d="M3359 2540 c-88 -46 -127 -137 -94 -216 43 -104 145 -142 245 -91 69
35 85 64 86 158 1 44 -1 78 -3 75 -3 -3 -17 9 -31 26 -31 36 -95 68 -137 67
-16 0 -46 -8 -66 -19z"/>
<path d="M2930 2097 c-15 -11 -61 -99 -74 -139 -3 -10 -10 -18 -16 -18 -14 0
-13 113 2 128 18 18 -2 31 -39 25 -26 -4 -34 -12 -44 -41 l-12 -35 -15 29 c-9
16 -15 32 -14 35 3 11 -77 15 -81 4 -3 -5 -1 -19 4 -30 12 -31 10 -113 -3
-121 -7 -5 -9 -2 -5 9 4 11 2 14 -8 11 -20 -8 -27 29 -11 60 15 29 11 65 -8
72 -23 8 -136 9 -136 1 0 -4 -5 -5 -11 -1 -11 7 -42 8 -114 5 l-30 -1 2 -80
c1 -45 -2 -80 -8 -80 -5 0 -9 -4 -9 -10 0 -6 49 -10 125 -9 116 0 136 4 118
23 -4 4 -9 18 -11 33 -3 23 -1 24 12 10 9 -9 20 -27 26 -41 9 -24 14 -26 68
-26 64 0 80 7 56 25 -9 6 -14 20 -12 31 3 15 8 11 23 -20 l19 -39 18 23 c10
12 18 31 18 42 0 10 5 16 10 13 6 -4 8 -11 4 -16 -3 -5 -7 -21 -10 -34 -4 -25
-3 -25 64 -25 76 0 88 5 66 28 -23 23 -2 39 32 23 20 -9 24 -15 16 -23 -24
-24 -10 -28 81 -28 104 0 127 12 127 63 0 21 -11 32 -55 57 -30 17 -55 34 -55
36 0 3 4 3 9 0 5 -4 11 -2 13 4 2 5 18 1 36 -10 20 -12 30 -25 26 -32 -9 -14
14 -2 42 24 l21 19 2 -65 c1 -36 -3 -67 -9 -71 -23 -14 -8 -25 35 -25 41 0 58
11 37 24 -11 7 -14 136 -3 136 15 0 43 -39 38 -53 -6 -16 15 -67 37 -90 17
-17 70 -23 101 -11 8 4 22 19 30 35 47 91 -38 183 -124 135 -19 -10 -28 -11
-36 -2 -7 7 -56 11 -139 10 -138 0 -146 -3 -146 -57 0 -24 7 -31 44 -48 42
-18 62 -40 49 -53 -13 -13 -37 -5 -59 19 -13 14 -29 24 -36 23 -8 -2 -14 9
-16 27 -2 16 -7 32 -10 35 -4 3 -14 19 -22 37 -12 26 -18 30 -30 20z m467 -29
c17 -21 22 -61 14 -98 -5 -28 -11 -35 -31 -35 -18 0 -26 7 -32 30 -18 65 19
142 49 103z m-964 -20 c14 -19 18 -21 26 -8 14 20 19 12 22 -35 3 -35 1 -40
-16 -37 -10 2 -24 -3 -30 -11 -5 -8 -20 -17 -31 -21 -17 -5 -23 -2 -27 16 -8
28 8 47 25 30 20 -20 28 -14 28 21 0 42 -9 52 -26 29 -11 -14 -15 -15 -23 -3
-25 39 26 56 52 19z m133 13 c-4 -5 -2 -11 4 -13 5 -2 6 -9 1 -16 -7 -11 -11
-10 -25 3 -22 22 -20 35 5 35 11 0 18 -4 15 -9z m364 -51 c0 -5 -4 -10 -10
-10 -5 0 -10 5 -10 10 0 6 5 10 10 10 6 0 10 -4 10 -10z"/>
<path d="M1980 2084 c0 -7 3 -15 8 -18 9 -5 8 -123 -1 -133 -4 -3 -7 -10 -7
-15 0 -12 245 -10 273 3 33 15 56 66 46 103 -15 54 -35 66 -113 66 -54 0 -67
-3 -58 -12 7 -7 12 -29 12 -50 0 -30 -6 -45 -27 -63 -42 -37 -63 -33 -64 13
-2 57 2 86 13 100 6 6 7 12 2 13 -5 0 -26 1 -46 3 -26 2 -38 -1 -38 -10z m260
-33 c5 -11 10 -31 10 -44 0 -28 -37 -80 -51 -72 -5 3 -8 35 -6 70 2 54 5 65
19 65 10 0 22 -9 28 -19z"/>
<path d="M3470 2081 c0 -5 7 -11 15 -15 23 -8 21 -122 -2 -135 -26 -14 -11
-23 33 -19 35 3 37 4 21 20 -9 9 -17 30 -17 47 l0 31 30 -26 c16 -15 32 -35
35 -45 7 -23 36 -33 47 -17 4 7 8 42 8 79 0 37 5 70 12 77 9 9 4 12 -26 12
-33 0 -37 -3 -31 -17 10 -24 19 -73 13 -73 -3 0 -18 20 -34 45 -25 40 -32 45
-66 45 -21 0 -38 -4 -38 -9z"/>
<path d="M1990 1875 c-14 -18 -12 -161 2 -173 19 -15 36 -2 41 33 3 25 9 30
35 33 26 3 32 0 32 -17 0 -22 44 -61 70 -61 9 0 29 11 43 24 20 19 29 22 34
12 13 -22 46 -32 83 -27 32 6 35 9 40 46 l6 40 8 -42 c6 -33 12 -43 27 -43 15
0 19 7 19 34 0 50 28 57 32 8 2 -30 7 -38 26 -40 18 -3 22 1 22 25 l1 28 14
-26 c15 -28 53 -41 98 -32 26 5 31 13 27 42 -1 8 10 1 24 -17 16 -18 35 -30
49 -30 27 2 57 26 57 45 0 9 10 3 24 -14 20 -23 31 -28 67 -27 l44 1 0 94 c0
77 -3 94 -15 94 -8 0 -19 -10 -25 -23 -5 -12 -19 -25 -30 -28 -11 -4 -31 -16
-45 -28 -14 -11 -22 -17 -18 -12 12 14 -24 35 -59 36 -22 0 -37 -7 -45 -20
-20 -31 -30 -24 -27 18 2 21 0 43 -4 49 -11 17 -37 4 -48 -23 -5 -14 -17 -24
-27 -24 -22 0 -47 -26 -56 -55 -3 -13 -4 -11 -2 6 4 34 -21 49 -79 49 -38 0
-45 -3 -45 -20 0 -11 -4 -20 -9 -20 -5 0 -11 9 -14 20 -3 12 -14 20 -26 20
-17 0 -21 -6 -21 -35 0 -19 -4 -35 -10 -35 -5 0 -12 16 -16 35 -5 28 -11 35
-30 35 -15 0 -24 -6 -24 -16 0 -15 -2 -15 -25 0 -31 21 -73 20 -97 -1 -12 -10
-18 -12 -18 -4 0 7 -7 10 -19 6 -22 -7 -53 4 -45 16 3 5 18 9 35 9 22 0 29 5
29 20 0 11 -6 21 -12 22 -40 5 -91 2 -98 -7z m190 -110 c0 -26 -14 -33 -25
-15 -9 14 1 40 15 40 5 0 10 -11 10 -25z m420 0 c0 -28 -17 -34 -27 -9 -3 9 0
20 8 25 19 12 19 12 19 -16z m256 16 c-4 -5 -1 -11 6 -13 6 -2 8 -10 4 -16
-12 -19 -23 -14 -20 11 3 27 3 27 10 27 3 0 3 -4 0 -9z"/>
<path d="M3185 1885 c-5 -2 -23 -6 -39 -10 -15 -3 -26 -9 -22 -12 3 -3 1 -12
-5 -19 -6 -8 -8 -26 -4 -44 5 -24 13 -32 36 -37 38 -7 29 -21 -11 -15 -36 5
-39 -9 -7 -38 15 -15 29 -20 47 -15 14 3 30 6 37 7 7 1 10 5 7 9 -9 15 19 22
30 7 19 -26 60 -30 84 -8 18 18 22 18 30 4 12 -21 127 -16 127 6 0 8 -10 17
-23 20 l-23 5 25 33 c30 41 23 82 -16 96 -33 12 -85 -8 -85 -32 0 -24 17 -33
40 -20 43 23 30 -20 -15 -45 -17 -10 -31 -16 -32 -15 -1 2 -7 15 -14 31 -6 15
-20 27 -29 28 -12 1 -9 3 7 8 16 4 25 14 25 26 0 17 -7 20 -50 20 -47 0 -50
-2 -56 -30 -4 -16 -7 -25 -8 -19 -2 17 -45 62 -56 59z m5 -65 c0 -5 -4 -10
-10 -10 -5 0 -10 5 -10 10 0 6 5 10 10 10 6 0 10 -4 10 -10z m124 -64 c-3 -8
-16 -11 -37 -7 -23 3 -26 6 -12 9 11 2 24 8 29 13 12 11 26 1 20 -15z"/>
<path d="M3050 1870 c0 -5 -7 -10 -15 -10 -8 0 -19 -9 -25 -21 -10 -17 -8 -21
9 -26 16 -4 21 -14 22 -44 2 -62 3 -64 27 -67 19 -3 22 1 23 30 2 79 -4 133
-14 140 -17 11 -27 10 -27 -2z"/>
<path d="M1318 1773 c-10 -2 -18 -8 -19 -11 0 -4 -2 -14 -4 -23 -5 -27 21 -52
49 -45 14 3 28 2 31 -4 4 -6 -6 -10 -22 -10 -30 -1 -63 -20 -63 -39 0 -6 -11
-11 -25 -11 -18 0 -25 -5 -25 -20 0 -15 7 -20 28 -20 30 0 30 0 35 -90 1 -30
6 -61 10 -67 6 -10 2 -11 -15 -5 -33 12 -58 4 -58 -18 0 -14 10 -21 35 -26 19
-3 38 -10 40 -15 3 -4 -2 -6 -12 -5 -31 6 -63 -12 -63 -35 0 -18 4 -21 33 -16
17 3 67 11 110 18 75 11 77 13 77 40 0 26 -4 28 -47 34 -69 9 -75 13 -21 14
28 1 53 7 62 17 17 16 21 46 9 58 -4 4 -6 23 -4 42 l3 34 -57 0 c-37 0 -54 4
-50 11 4 6 19 10 33 9 61 -4 69 -1 76 32 4 22 1 37 -10 49 -8 9 -11 19 -6 20
11 4 15 21 13 62 -1 27 -2 27 -63 26 -35 -1 -71 -3 -80 -6z"/>
<path d="M2795 1700 c3 -5 8 -10 11 -10 2 0 4 5 4 10 0 6 -5 10 -11 10 -5 0
-7 -4 -4 -10z"/>
<path d="M3362 1658 c-7 -7 -12 -19 -12 -27 -1 -62 -93 -271 -175 -396 -100
-153 -268 -324 -385 -393 -25 -14 -49 -32 -55 -38 -27 -34 -262 -131 -392
-164 -24 -5 -62 -15 -85 -21 -24 -6 -97 -14 -163 -17 l-120 -7 -3 -119 -3
-119 113 7 c128 8 306 37 388 62 30 10 57 18 60 19 3 1 19 7 35 14 17 7 59 24
95 38 36 14 72 32 81 39 8 8 20 14 25 14 5 0 33 15 62 34 28 19 52 33 52 30 0
-13 187 141 268 220 79 77 195 218 239 291 47 78 114 211 134 265 12 36 27 68
32 71 5 4 7 11 3 17 -3 6 -2 13 3 16 9 6 41 130 41 160 0 14 -18 16 -113 16
-75 0 -117 -4 -125 -12z"/>
<path d="M1313 1263 c-16 -6 -17 -79 -2 -88 7 -5 6 -12 -3 -23 -8 -10 -13 -23
-12 -29 1 -7 2 -18 3 -23 0 -6 11 -15 24 -20 17 -7 11 -9 -30 -9 -50 -1 -53
-3 -53 -26 0 -17 6 -25 18 -25 16 -1 16 -2 0 -13 -9 -7 -18 -24 -20 -37 l-3
-25 113 -3 112 -3 0 26 c0 21 -5 25 -27 25 l-28 1 31 13 c40 18 43 59 5 64
l-24 4 24 12 c28 13 34 50 12 72 -8 8 -10 14 -4 14 5 0 10 23 9 50 l0 50 -66
-1 c-37 0 -73 -3 -79 -6z"/>
<path d="M1301 858 c-9 -24 -8 -34 1 -40 10 -6 9 -12 -6 -23 -10 -8 -24 -16
-30 -18 -15 -5 11 -37 30 -37 17 0 18 -12 4 -26 -17 -17 9 -64 34 -65 21 0 21
0 -1 -9 -12 -5 -26 -16 -31 -26 -10 -19 -5 -54 9 -54 5 0 9 -13 9 -30 0 -23
-4 -30 -20 -30 -15 0 -20 7 -20 26 0 19 -5 25 -17 22 -13 -2 -19 -15 -21 -46
-3 -41 0 -44 33 -44 166 0 185 2 185 22 0 17 -7 20 -39 20 -35 0 -40 3 -50 31
-8 25 -8 29 2 22 17 -14 78 -8 88 8 4 8 7 28 5 44 -2 22 -9 31 -26 33 l-23 4
24 12 c28 13 32 51 10 79 -10 12 -11 17 -2 17 7 0 12 11 10 28 -1 15 1 34 4
42 4 8 5 24 3 35 -3 11 -5 23 -5 28 -1 4 -34 7 -75 7 l-74 0 -11 -32z m83 -63
c6 -17 4 -18 -18 -9 -20 8 -21 24 -2 24 8 0 16 -7 20 -15z m19 -91 c3 -18 0
-24 -13 -24 -23 0 -28 7 -23 35 6 30 29 23 36 -11z"/>
</g>
</svg>
